# xmcd CD database file
#
# Track frame offsets:
#	150
#	28888
#	45323
#	67465
#	81925
#	98995
#	117681
#	129912
#	146191
#	162277
#	178253
#	201274
#	214765
#	220164
#	242498
#	261367
#	275512
#	289808
#	305824
#
# Disc length: 4359 seconds
#
# Revision: 5
# Processed by: cddbd v1.5.2PL0 Copyright (c) Steve Scherf et al.
# Submitted via: CDex 1.73
#
DISCID=39110513
DTITLE=Hugh Laurie - Let Them Talk - Special Edition
DYEAR=2011
DGENRE=Blues
TTITLE0=St James Infirmary
TTITLE1=You Don't Know My Mind
TTITLE2=Six Cold Feet
TTITLE3=Buddy Bolden's Blues
TTITLE4=Battle Of Jericho
TTITLE5=After You've Gone
TTITLE6=Swanee River
TTITLE7=The Whale Has Swallowed Me
TTITLE8=John Henry
TTITLE9=Police Dog Blues
TTITLE10=Tipitina
TTITLE11=Winin' Boy Blues
TTITLE12=They're Red Hot
TTITLE13=Baby Please Make A Change
TTITLE14=Let Them Talk
TTITLE15=Hallelujah, I Love Her So
TTITLE16=Crazy Arms
TTITLE17=Waiting For A Train
TTITLE18=You Don't Know My Mind - Live In Paris
EXTD=YEAR: 2011
EXTT0=
EXTT1=
EXTT2=
EXTT3=
EXTT4=
EXTT5=
EXTT6=
EXTT7=
EXTT8=
EXTT9=
EXTT10=
EXTT11=
EXTT12=
EXTT13=
EXTT14=
EXTT15=
EXTT16=
EXTT17=
EXTT18=
PLAYORDER=
